<?xml version="1.0" encoding="utf-8"?>
<!-- Generator: Adobe Illustrator 27.5.0, SVG Export Plug-In . SVG Version: 6.00 Build 0)  -->
<svg version="1.1" id="Capa_1" xmlns="http://www.w3.org/2000/svg" xmlns:xlink="http://www.w3.org/1999/xlink" x="0px" y="0px"
	 viewBox="0 0 2122 2122" style="enable-background:new 0 0 2122 2122;" xml:space="preserve">
<g>
	<path style="fill:#692816;" d="M1828.593,906.028c9.501,269.231-176.355,517.655-408.366,666.56
		c-0.33,0.212-0.663,0.42-0.993,0.632c-16.132,10.328-32.483,20.17-49.008,29.508c-1.168,0.661-2.332,1.326-3.503,1.982
		c-7.703,4.314-15.442,8.519-23.213,12.61c-1.365,0.719-2.733,1.421-4.1,2.132c-7.981,4.155-15.985,8.229-24.025,12.141
		c-8.902,4.332-17.734,8.494-26.494,12.491c-52.565,23.98-102.615,41.992-150.42,54.825
		c-111.547,29.946-210.876,31.703-301.447,15.327c-6.47-1.169-12.894-2.432-19.275-3.783
		c-63.812-13.51-123.282-35.906-179.67-63.521c-69.994-34.28-104.74-76.955-117.834-115.457c-1.007-2.962-1.886-5.899-2.644-8.805
		c-0.443-1.698-0.831-3.382-1.191-5.057c-0.565-2.628-1.043-5.23-1.414-7.797c-0.406-2.803-0.699-5.566-0.884-8.285
		c-0.187-2.719-0.267-5.393-0.246-8.016c0.041-5.247,0.483-10.292,1.276-15.09c0.595-3.598,1.388-7.057,2.358-10.358
		c0.44-1.496,0.928-2.948,1.439-4.377c-15.07,5.51-29.966,11.464-44.605,17.805c-3.625,1.57-9.447-2.151-6.307-6.308
		c14.467-19.156,113.561-87.848,148.823-99.353c-0.182-0.255-0.305-0.541-0.415-0.827c-6.29,1.662-12.758,3.062-19.357,4.172
		c-5.068,0.853-10.21,1.534-15.41,2.014c-0.521,0.048-1.041,0.101-1.564,0.145c-5.751,0.485-11.565,0.737-17.419,0.711
		c-0.056,0-0.112,0.004-0.168,0.003c-42.753-0.229-87.441-14.858-122.785-54.691c-7.573-8.535-14.718-18.228-21.323-29.184
		c-2.202-3.652-4.344-7.445-6.421-11.381c-2.957-6.847-5.73-13.693-8.399-20.538c-0.833-2.134-1.609-4.268-2.413-6.401
		c-1.807-4.792-3.559-9.583-5.228-14.373c-0.831-2.386-1.643-4.771-2.44-7.156c-1.594-4.768-3.108-9.533-4.566-14.298
		c-0.659-2.15-1.341-4.301-1.971-6.451c-1.889-6.437-3.675-12.871-5.322-19.3c-0.098-0.382-0.213-0.764-0.31-1.145
		c-1.744-6.863-3.321-13.719-4.793-20.57c-0.418-1.946-0.785-3.888-1.181-5.833c-1.011-4.959-1.967-9.913-2.839-14.864
		c-0.395-2.24-0.77-4.478-1.136-6.715c-0.8-4.888-1.526-9.771-2.193-14.65c-0.273-1.995-0.565-3.991-0.815-5.984
		c-0.805-6.398-1.512-12.788-2.09-19.168c-0.033-0.372-0.082-0.746-0.116-1.119c-0.614-6.924-1.075-13.835-1.429-20.734
		c-0.077-1.514-0.114-3.023-0.18-4.536c-0.229-5.333-0.392-10.658-0.469-15.974c-0.027-1.925-0.038-3.849-0.046-5.772
		c-0.023-5.163,0.03-10.316,0.149-15.461c0.039-1.666,0.062-3.333,0.116-4.997c0.213-6.643,0.515-13.274,0.958-19.886
		c0.003-0.046,0.004-0.093,0.008-0.139c0.473-7.031,1.088-14.04,1.816-21.032c0.085-0.821,0.193-1.638,0.282-2.459
		c0.645-5.945,1.384-11.875,2.209-17.79c0.2-1.422,0.41-2.843,0.62-4.264c0.822-5.591,1.723-11.167,2.704-16.73
		c0.208-1.182,0.406-2.366,0.621-3.547c3.744-20.523,8.555-40.84,14.355-60.919c0.231-0.8,0.47-1.599,0.704-2.398
		c1.79-6.102,3.667-12.182,5.637-18.238c0.195-0.599,0.385-1.2,0.581-1.799c6.689-20.369,14.389-40.466,23.024-60.256
		c0.047-0.109,0.096-0.218,0.144-0.327c2.194-5.021,4.443-10.023,6.756-15.004c-128.253,178.944-183.413,399.016-88.241,619.36
		c26.519,50.255,63.492,76.939,102.356,88.344c-22.918,64.367-7.287,207.623,123.735,271.791
		c180.438,88.37,389.738,123.706,693.765,34.648C1531.094,1729.632,1874.694,1438.746,1828.593,906.028z"/>
	<path style="fill:#692816;" d="M1179.79,977.877c43.044-85.198,68.221-180.751,132.02-253.176
		c131.497-149.28,260.559-125.861,280.761-126.043c4.688-0.042,7.509,3.129,8.251,6.781c37.204-5.405,78.143-1.139,114.556,20.689
		c-7.598-34.952-14.636-67.819-43.467-103.737c-4.485,11.186-11.135,20.038-18.93,25.609c-0.059,0.042-0.118,0.081-0.176,0.122
		c-0.785,0.555-1.581,1.075-2.388,1.563c-0.105,0.063-0.21,0.128-0.315,0.19c-0.825,0.488-1.659,0.944-2.505,1.359
		c-0.046,0.023-0.092,0.048-0.138,0.071c-1.779,0.864-3.598,1.564-5.45,2.094c-0.222,0.063-0.445,0.115-0.668,0.174
		c-0.674,0.177-1.35,0.334-2.031,0.465c-0.288,0.055-0.577,0.108-0.867,0.156c-0.65,0.106-1.303,0.186-1.958,0.25
		c-0.279,0.027-0.555,0.062-0.836,0.082c-0.906,0.062-1.816,0.094-2.731,0.073c-0.011,0-0.021,0.001-0.031,0.001
		c-8.167-0.197-16.525-0.36-25.064-0.451c-1.571-0.017-3.18-0.016-4.763-0.028c1.877,1.799,1.827,5.527-1.278,6.1
		c-24.884,4.586-49.069,4.507-74.214,6.571c-26.068,2.139-50.031,8.205-74.925,15.821c-47.313,14.476-93.193,31.717-136.199,56.44
		c-79.639,45.781-145.527,102.76-199.903,177.162c-52.585,71.954-94.018,151.096-139.245,227.676
		c-43.866,74.274-91.38,146.021-151.435,208.387c-28.635,29.739-60.051,56.897-94.495,79.726
		c-13.513,8.958-27.508,16.598-41.998,23.5c41.026-10.408,82.302-19.908,122.644-32.78
		C981.328,1268.696,1101.449,1132.94,1179.79,977.877z"/>
	<path style="fill:#92513C;" d="M1307.957,493.303c120.652-7.541,234.364,19.627,347.524,52.741
		c6.712-5.591,12.433-13.687,16.428-23.653c18.05-45.017,0.965-127.747-118.402-185.919
		c-180.61-88.018-392.682-122.52-677.274,16.657c-127.035,62.125-247.322,154.85-339.379,266.722l-2.408,2.939
		c-27.934,96.408-36.932,196.536,3.126,296.683c32.782,114.738,147.521,131.129,229.477,98.347
		C996.525,886.69,1012.917,526.085,1307.957,493.303z"/>
	<path style="fill:#92513C;" d="M1828.593,906.028c-1.213-34.351-5.597-69.036-13.481-103.9c-0.005-0.019-0.01-0.037-0.014-0.056
		c-7.76-34.298-18.84-68.762-33.653-103.242c-18.035-34.34-40.978-57.662-66.068-72.702
		c-36.413-21.828-77.352-26.094-114.556-20.689c0.839,4.132-0.992,8.883-5.935,10.323
		c-110.161,32.102-179.62,122.427-231.984,219.633c-49.54,91.963-86.05,189.835-147.376,275.214
		c-54.897,76.429-121.33,143.825-198.564,197.759c-76.482,53.411-163.091,90.897-254.999,107.362
		c1.34,40.509,17.26,75.324,54.26,93.824c325.759,138.2,621.768,20.721,870.174-184.073l6.496-8.732
		C1780.39,1194.708,1833.796,1053.492,1828.593,906.028z"/>
	<path style="fill:#894331;" d="M562.683,1382.051c5.853,0.026,11.668-0.226,17.419-0.711c0.522-0.044,1.042-0.097,1.564-0.145
		c5.201-0.479,10.342-1.161,15.41-2.014c6.599-1.11,13.067-2.51,19.357-4.172c-0.438-1.138-0.263-2.412,1.12-3.064
		c21.52-10.137,43.273-26.846,63.044-40.429c19.598-13.465,38.668-27.24,56.499-43.019c36.773-32.543,69.303-69.787,97.952-109.614
		c104.486-145.254,168.041-317.025,288.449-451.346c60.612-67.617,134.669-120.675,220.406-151.185
		c41.084-14.619,83.75-24.851,127.412-26.831c43.582-1.978,88.207-10.03,130.465,3.787c0.503,0.165,0.914,0.466,1.278,0.815
		c1.583,0.011,3.192,0.011,4.763,0.028c8.539,0.09,16.897,0.254,25.064,0.451c0.01,0,0.021-0.001,0.031-0.001
		c0.915,0.021,1.825-0.01,2.731-0.073c0.28-0.019,0.557-0.055,0.836-0.082c0.656-0.064,1.308-0.144,1.958-0.25
		c0.29-0.048,0.579-0.1,0.867-0.156c0.681-0.132,1.357-0.288,2.031-0.465c0.223-0.059,0.446-0.111,0.668-0.174
		c1.851-0.532,3.672-1.229,5.45-2.094c0.046-0.023,0.092-0.049,0.138-0.071c0.846-0.417,1.68-0.871,2.505-1.359
		c0.106-0.062,0.211-0.127,0.315-0.19c0.807-0.488,1.603-1.007,2.388-1.563c0.058-0.041,0.117-0.08,0.176-0.122
		c0.855-0.612,1.698-1.26,2.524-1.949c-113.167-33.118-226.886-60.289-347.546-52.748
		c-295.04,32.782-311.432,393.388-540.908,524.517c-81.956,32.782-196.694,16.391-229.477-98.347
		c-40.058-100.147-31.06-200.275-3.126-296.683c-42.751,52.377-79.308,108.905-107.477,168.424
		c-0.003,0.006-0.005,0.012-0.009,0.018c-3.097,6.545-6.09,13.127-8.982,19.742c-0.047,0.109-0.096,0.217-0.144,0.327
		c-8.637,19.789-16.332,39.89-23.024,60.256c-0.196,0.599-0.386,1.2-0.581,1.799c-1.971,6.056-3.847,12.137-5.637,18.238
		c-0.233,0.8-0.473,1.598-0.704,2.398c-5.804,20.077-10.609,40.397-14.355,60.919c-0.216,1.181-0.413,2.365-0.621,3.547
		c-0.981,5.562-1.881,11.139-2.704,16.73c-0.21,1.421-0.42,2.841-0.62,4.264c-0.826,5.915-1.563,11.845-2.209,17.79
		c-0.089,0.82-0.198,1.637-0.282,2.459c-0.73,6.992-1.343,14.002-1.816,21.032c-0.004,0.046-0.005,0.093-0.008,0.139
		c-0.444,6.612-0.745,13.243-0.958,19.886c-0.053,1.664-0.077,3.331-0.116,4.997c-0.12,5.145-0.17,10.299-0.149,15.461
		c0.008,1.923,0.019,3.847,0.046,5.772c0.077,5.316,0.24,10.642,0.469,15.974c0.066,1.513,0.102,3.022,0.18,4.536
		c0.353,6.9,0.817,13.811,1.429,20.734c0.034,0.373,0.083,0.746,0.116,1.119c0.579,6.38,1.286,12.77,2.09,19.168
		c0.25,1.993,0.542,3.989,0.815,5.984c0.667,4.879,1.393,9.762,2.193,14.65c0.366,2.238,0.741,4.476,1.136,6.715
		c0.872,4.95,1.827,9.905,2.839,14.864c0.397,1.944,0.763,3.887,1.181,5.833c1.472,6.85,3.051,13.706,4.793,20.57
		c0.097,0.381,0.212,0.763,0.31,1.145c1.647,6.428,3.433,12.862,5.322,19.3c0.631,2.15,1.313,4.301,1.971,6.451
		c1.458,4.764,2.973,9.53,4.566,14.298c0.796,2.385,1.609,4.77,2.44,7.156c1.668,4.79,3.42,9.581,5.228,14.373
		c0.804,2.134,1.581,4.267,2.413,6.401c2.669,6.845,5.442,13.691,8.399,20.538c2.077,3.937,4.219,7.73,6.421,11.381
		c6.604,10.956,13.749,20.649,21.323,29.184c35.344,39.832,80.032,54.462,122.785,54.691
		C562.571,1382.054,562.626,1382.05,562.683,1382.051z"/>
	<path style="fill:#894331;" d="M816.223,1509.555c-37-18.5-52.92-53.315-54.26-93.824c-1.019,0.183-2.03,0.399-3.051,0.577
		c-47.954,8.335-96.563,12.388-144.482,20.914c-32.459,5.774-64.386,15.095-95.493,26.469c-0.51,1.429-0.999,2.881-1.439,4.377
		c-0.97,3.301-1.763,6.76-2.358,10.358c-0.793,4.797-1.235,9.843-1.276,15.09c-0.021,2.624,0.059,5.297,0.246,8.016
		c0.186,2.719,0.479,5.482,0.884,8.285c0.372,2.566,0.849,5.169,1.414,7.797c0.361,1.676,0.749,3.36,1.191,5.057
		c0.757,2.907,1.636,5.844,2.644,8.805c13.094,38.502,47.84,81.177,117.834,115.457c56.388,27.615,115.858,50.011,179.67,63.521
		c6.381,1.351,12.805,2.613,19.275,3.783c90.57,16.376,189.9,14.619,301.447-15.327c47.805-12.834,97.855-30.845,150.42-54.825
		c8.761-3.997,17.592-8.16,26.494-12.492c8.041-3.913,16.045-7.985,24.025-12.141c1.367-0.711,2.736-1.413,4.1-2.132
		c7.771-4.091,15.511-8.294,23.213-12.61c1.17-0.656,2.335-1.321,3.503-1.982c16.524-9.342,32.881-19.174,49.008-29.508
		c0.33-0.211,0.663-0.42,0.993-0.632c101.822-65.405,194.717-150.017,266.171-247.107
		C1437.991,1530.275,1141.982,1647.755,816.223,1509.555z"/>
	<path style="fill:#3E1200;" d="M1603.057,554.122c-0.364-0.349-0.775-0.651-1.278-0.815c-42.258-13.816-86.883-5.765-130.465-3.787
		c-43.662,1.981-86.328,12.212-127.412,26.831c-85.737,30.51-159.794,83.568-220.406,151.185
		c-120.409,134.322-183.963,306.092-288.449,451.346c-28.648,39.826-61.179,77.071-97.952,109.614
		c-17.831,15.779-36.9,29.554-56.499,43.019c-19.77,13.583-41.524,30.292-63.044,40.429c-1.383,0.652-1.559,1.926-1.12,3.064
		c0.11,0.286,0.232,0.572,0.415,0.827c-35.262,11.504-134.356,80.196-148.823,99.353c-3.14,4.157,2.682,7.878,6.307,6.308
		c14.64-6.341,29.535-12.295,44.605-17.805c31.107-11.375,63.034-20.695,95.493-26.469c47.919-8.526,96.528-12.579,144.482-20.914
		c1.021-0.178,2.031-0.394,3.051-0.577c91.908-16.465,178.516-53.951,254.999-107.362c77.234-53.934,143.666-121.33,198.564-197.759
		c61.326-85.379,97.836-183.251,147.376-275.214c52.364-97.206,121.823-187.531,231.984-219.633
		c4.944-1.441,6.775-6.191,5.935-10.323c-0.742-3.652-3.563-6.823-8.251-6.781c-20.202,0.182-149.264-23.237-280.761,126.043
		c-63.798,72.426-88.976,167.979-132.02,253.176c-78.34,155.063-198.461,290.819-367.779,344.847
		c-40.342,12.873-81.618,22.373-122.644,32.78c14.49-6.902,28.485-14.542,41.998-23.5c34.444-22.829,65.86-49.986,94.495-79.726
		c60.055-62.366,107.57-134.114,151.435-208.387c45.227-76.58,86.66-155.722,139.245-227.676
		c54.376-74.402,120.264-131.382,199.903-177.162c43.006-24.723,88.885-41.964,136.199-56.44
		c24.893-7.616,48.857-13.682,74.925-15.821c25.145-2.064,49.329-1.985,74.214-6.571
		C1604.884,559.649,1604.934,555.922,1603.057,554.122z"/>
	<path style="fill:#AE6E56;" d="M1718.722,677.768c-78.635-89.551-210.71,20.974-262.2,89.117
		c-55.473,73.416-87.139,160.571-127.737,242.094c-26.247,52.705-56.684,100.067-88.988,148.734
		c-39.948,45.635,15.112,53.563,40.814,46.287c39.905-11.296,82.108-35.044,111.23-64.475
		c56.511-57.111,86.792-133.314,154.74-179.778c39.832-27.239,78.646-34.044,124.904-24.768c35.615,7.141,64.286,7.777,88.275-26.15
		C1802.712,848.083,1763.211,728.433,1718.722,677.768z"/>
	<path style="fill:#AE6E56;" d="M1404.221,447.862c41.529-0.059,122.892,18.948,157.048-17.537
		c60.028-64.123-101.851-114.351-140.291-129.24c-99.076-38.376-245.8-30.21-347.326-0.847
		c-216.662,62.66-318.774,152.944-377.198,208.97c-46.609,44.696-41.815,118.458-7.845,147.173
		c47.518,40.168,123.612-4.956,165.646-33.314c63.766-43.021,115.996-107.412,186.696-137.292
		C1154.704,437.701,1283.634,448.032,1404.221,447.862z"/>
</g>
</svg>
